<svg height="512" viewBox="0 0 60 60" width="512" xmlns="http://www.w3.org/2000/svg"><g id="Page-1" fill="none" fill-rule="evenodd"><g id="011---Happy-Girl" fill-rule="nonzero"><path id="Shape" d="m48.02 25c0 6.964.055 7.5-.17 9-1.0662742 8.8037173-8.3225071 15.5573357-17.18 15.99-9.4088019.3333683-17.4876315-6.6342954-18.54-15.99-.158-1.486-.11-1.908-.11-9 0 0 20 2 24-6 0 0 1.99 5.98 11.96 6z" fill="#ffe0b2"/><path id="Shape" d="m47.98 25c-9.97-.02-11.96-6-11.96-6-.4113602.8009335-.9713112 1.5163133-1.65 2.108 2.598 2.929 6.714 3.892 10.65 3.892 0 6.964.055 7.5-.17 9-1.0297413 8.462281-7.7888098 15.0796962-16.271 15.93 10.829.87 19.441-7.981 19.441-18.36 0-6.948.061-6.57-.04-6.57z" fill="#dfc49c"/><path id="Shape" d="m35.02 49.28v2.72c0 1.6568542-1.3431458 3-3 3h-4c-1.6548028-.0049422-2.9950578-1.3451972-3-3v-2.71c1.8337684.5340384 3.7413484.7703757 5.65.7 1.4743633-.0500036 2.9362536-.288611 4.35-.71z" fill="#ffe0b2"/><path id="Shape" d="m32.02 49.886v2.114c0 1.6568542-1.3431458 3-3 3h3c1.6568542 0 3-1.3431458 3-3v-2.72c-.9803397.2894004-1.9841933.4921788-3 .606z" fill="#dfc49c"/><circle id="Oval" cx="21" cy="33" fill="#3f51b5" r="2"/><circle id="Oval" cx="39" cy="33" fill="#3f51b5" r="2"/><path id="Shape" d="m46.02 59h-32.0000293c-.0016496-.5666488.0689192-1.1311998.2100293-1.68.7640214-3.1280431 3.5700094-5.3265492 6.79-5.32h4c.0049422 1.6548028 1.3451972 2.9950578 3 3h4c1.6568542 0 3-1.3431458 3-3h4c3.8659932 0 7 3.1340068 7 7z" fill="#e91e63"/><path id="Shape" d="m45.82 57.34c-.7651311-3.134421-3.5735437-5.3398509-6.8-5.34h-3c3.8659932 0 7 3.1340068 7 7h3c.0000289-.5593447-.0671185-1.1166686-.2-1.66z" fill="#ad1457"/><path id="Shape" d="m12.13 34.0000044-1.61-.0000044c-1.40281773.0022219-2.67094954-.8347666-3.22038786-2.1255106s-.27363796-2.7849468.70038786-3.7944894l.05-.05c.65185581-.6607299 1.54184238-1.0318579 2.47-1.03h1.5v5c.0011972.668145.0379157 1.3357538.11 2.0000044z" fill="#ffe0b2"/><path id="Shape" d="m53.02 30.5c-.0093024 1.9291303-1.5708697 3.4906976-3.5 3.5h-1.67c.1169931-.804648.1738173-1.6169003.17-2.43v-4.57h1.5c.9281576-.0018579 1.8181442.3692701 2.47 1.03l.01.01c.653743.6516401 1.0208244 1.5369539 1.02 2.46z" fill="#ffe0b2"/><path id="Shape" d="m47.98 25c0-.05-.02-11-17.98-11s-17.98 10.95-17.98 11c0 0-2.02-17 17.98-17s17.98 17 17.98 17z" fill="#9d27b0"/><path id="Shape" d="m30 8c-.518 0-1.011.018-1.5.04 9.928.451 13.94 5.353 15.527 9.775 2.2854516 1.7186973 3.7246266 4.3345518 3.953 7.185 0 0 2.02-17-17.98-17z" fill="#6a1b9a"/><path id="Shape" d="m25.02 49.29v2.71h-4c-3.2199906-.0065492-6.0259786 2.1919569-6.79 5.32-10.37 4.24-13.23-5.37-13.23-5.37 2.1739767.5301723 4.4516234-.3175084 5.75-2.14.83922726-1.2153866 1.27638613-2.6632567 1.25-4.14v-12.75c.65579385.6911476 1.56724215 1.0817683 2.52 1.08h1.61c.8112283 7.2335528 5.8978113 13.2672111 12.89 15.29z" fill="#ffdc00"/><path id="Shape" d="m11.23 57.32c-1.0835997.4543699-2.21816836.7760381-3.379.958 2.1741159.287106 4.3851248-.0449439 6.379-.958.7640214-3.1280431 3.5700094-5.3265492 6.79-5.3200146l-3 .0000146c-3.2199906-.0065492-6.0259786 2.1919569-6.79 5.32z" fill="#fec108"/><path id="Shape" d="m12.13 34h-1.61c-.95275785.0017683-1.86420615-.3888524-2.52-1.08v1.08h1.13c.81122827 7.2335528 5.8978113 13.2672111 12.89 15.29v2.71h3v-2.71c-6.9921887-2.0227889-12.0787717-8.0564472-12.89-15.29z" fill="#fec108"/><path id="Shape" d="m47.98 25c-9.97-.02-11.96-6-11.96-6-4 8-24 6-24 6 0-.05.02-11 17.98-11s17.98 10.95 17.98 11z" fill="#ffdc00"/><path id="Shape" d="m44.969 24.781c.9971823.1445048 2.0034027.2176905 3.011.219 0-.05-.02-11-17.98-11-.516 0-1.013.011-1.5.029 15.092.544 16.363 9.271 16.469 10.752z" fill="#fec108"/><path id="Shape" d="m59 51.95s-2.85 9.58-13.18 5.39c-.7651311-3.134421-3.5735437-5.3398509-6.8-5.34h-4v-2.72c6.9097102-2.1266207 11.9308319-8.1065693 12.83-15.28h1.67c.9327407.0002165 1.8264105-.3745483 2.48-1.04v12.71c-.0263861 1.4767433.4107727 2.9246134 1.25 4.14 1.2983766 1.8224916 3.5760233 2.6701723 5.75 2.14z" fill="#ffdc00"/><path id="Shape" d="m53.25 49.81c-.8392273-1.2153866-1.2763861-2.6632567-1.25-4.14v-12.71c-.6535895.6654517-1.5472593 1.0402165-2.48 1.04h-.52v11.67c-.0263861 1.4767433.4107727 2.9246134 1.25 4.14 1.2983766 1.8224916 3.5760233 2.6701723 5.75 2.14 0 0-1.623 5.445-6.85 6.328 7.626 1.13 9.85-6.328 9.85-6.328-2.1739767.5301723-4.4516234-.3175084-5.75-2.14z" fill="#fec108"/><path id="Shape" d="m52 18.05v9.99l-.01-.01c-.6518558-.6607299-1.5418424-1.0318579-2.47-1.03h-1.5v-2h-.04s2.02-17-17.98-17-17.98 17-17.98 17v2h-1.5c-.92815762-.0018579-1.81814419.3692701-2.47 1.03l-.05.05v-10.03c-.01760335-1.3710043.1574397-2.7376866.52-4.06 1.68-5.75 6.47-9.06 11.1-10.95 6.652718-2.7199937 14.107282-2.7199937 20.76 0 4.63 1.89 9.42 5.2 11.1 10.95.3625603 1.3223134.5376034 2.6889957.52 4.06z" fill="#ffdc00"/><path id="Shape" d="m51.48 13.99c-2.621-8.969-13.796-13.447-22.98-12.945 8.126.443 17.593 4.776 19.98 12.945.69 2.4.52 3.94.52 13.01h.52c.9332638-.0028274 1.8279062.3723452 2.48 1.04 0-10.167.172-11.646-.52-14.05z" fill="#fec108"/><path id="Shape" d="m33.83 44.86c-2.3268313 1.5209671-5.3331687 1.5209671-7.66 0 .5018671-1.6968802 2.0604596-2.8612441 3.83-2.8612441s3.3281329 1.1643639 3.83 2.8612441z" fill="#e91e63"/><path id="Shape" d="m37.0000231 39c.0047577 1.8574877-.7333618 3.6397763-2.0500231 4.95-.3413084.3407508-.7165973.645673-1.12.91-.5018671-1.6968802-2.0604596-2.8612441-3.83-2.8612441s-3.3281329 1.1643639-3.83 2.8612441c-1.9789246-1.2922419-3.1713421-3.4965217-3.1700011-5.86z" fill="#ad1457"/><g fill="#000"><path id="Shape" d="m24 33c0-1.6568542-1.3431458-3-3-3s-3 1.3431458-3 3 1.3431458 3 3 3 3-1.3431458 3-3zm-3 1c-.5522847 0-1-.4477153-1-1s.4477153-1 1-1 1 .4477153 1 1-.4477153 1-1 1z"/><path id="Shape" d="m39 30c-1.6568542 0-3 1.3431458-3 3s1.3431458 3 3 3 3-1.3431458 3-3-1.3431458-3-3-3zm0 4c-.5522847 0-1-.4477153-1-1s.4477153-1 1-1 1 .4477153 1 1-.4477153 1-1 1z"/><path id="Shape" d="m19 29h3c.5522847 0 1-.4477153 1-1s-.4477153-1-1-1h-3c-.5522847 0-1 .4477153-1 1s.4477153 1 1 1z"/><path id="Shape" d="m41 27h-3c-.5522847 0-1 .4477153-1 1s.4477153 1 1 1h3c.5522847 0 1-.4477153 1-1s-.4477153-1-1-1z"/><path id="Shape" d="m58.835 50.964c-1.7974534.4513879-3.6885538-.2378694-4.774-1.74-.7148918-1.0453897-1.0857932-2.2877871-1.061-3.554v-12.358c1.3546169-1.6284507 1.3546169-3.9915493 0-5.62v-9.642c.019095-1.4658458-.1694427-2.9270126-.56-4.34-1.482-5.071-5.522-9.081-11.681-11.595-6.8980808-2.80501711-14.6189192-2.80501711-21.517 0-6.16 2.515-10.2 6.525-11.683 11.6-.38989664 1.4113951-.5780959 2.8708652-.559 4.335v9.68c-1.31118279 1.6157995-1.31118279 3.9292005 0 5.545v12.4c.02474464 1.2657469-.34578322 2.5077144-1.06 3.553-1.08499319 1.5033648-2.9769929 2.1932018-4.775 1.741-.33897032-.0559335-.68292178.0660538-.91090198.3230644-.2279802.2570107-.30806722.6130578-.21209802.9429356.88300138 2.7001497 2.77702423 4.9536247 5.285 6.288 1.2445247.591299 2.60720814.8918758 3.985.879 1.2607316-.016708 2.5121404-.2188742 3.714-.6 0 .066-.01.13-.01.2 0 .5522847.4477153 1 1 1h32c.5522847 0 1-.4477153 1-1 0-.063-.008-.125-.01-.187 1.1924509.3746894 2.4331771.5734482 3.683.59 1.3832353.0125466 2.7511608-.2901069 4-.885 2.5019841-1.3361664 4.3911261-3.587158 5.273-6.283.0981314-.3305476.0190496-.6883324-.2092565-.9467269-.2283062-.2583946-.5736259-.3809431-.9137435-.3242731zm-24.819 1.036c0 1.1045695-.8954305 2-2 2h-4c-1.1045695 0-2-.8954305-2-2v-1.432c1.3118078.2837632 2.6498564.428562 3.992.432.233 0 .468 0 .7-.012 1.1131965-.0452547 2.2198648-.1928775 3.306-.441zm-3.377-3.011c-1.7652035.0675001-3.5301234-.1410108-5.231-.618h-.013c-7.3223799-2.0756554-12.3768611-8.7601139-12.379-16.371v-5.916c4.061.281 17.961.766 22.918-5.156 1.319 1.889 4.417 4.787 11.082 5.052v5.588c0 9.283-7.347 17.098-16.377 17.421zm-21.918-16.756c-.008-.008-.013-.017-.021-.025-.43812959-.4608508-.68292468-1.0721228-.684-1.708.00819034-1.3773051 1.12269494-2.4918097 2.5-2.5h.5v4c0 .336.032.667.049 1h-.549c-.67783344-.0004764-1.32612893-.2774918-1.795-.767zm6.988-12.849c2.905-2.909 7.713-4.384 14.291-4.384 13.629 0 16.321 6.389 16.853 8.959-8.068-.419-9.818-5.074-9.889-5.275-.1270252-.3848496-.4737694-.6549784-.878-.684-.4026298-.0246278-.7815651.1917383-.965.551-3.159 6.32-17.968 5.795-21.99 5.53.3748051-1.786575 1.2721256-3.4214526 2.578-4.697zm-1.926-.869c.5470678-1.7031242 1.4377675-3.2758882 2.617-4.621 2.884-3.248 7.46-4.894 13.6-4.894s10.7 1.642 13.588 4.879c1.18188 1.3456206 2.0737635 2.9203738 2.62 4.626-.158-.178-.325-.357-.5-.534-3.296-3.299-8.58-4.971-15.708-4.971s-12.412 1.672-15.706 4.971c-.18.18-.351.362-.511.544zm35.233 13.053v-3.568h.5c1.3770797.0087298 2.4912702 1.1229203 2.5 2.5-.0000902.6557-.2588132 1.2849-.72 1.751l-.008.01c-.4683229.4730196-1.1063621.7391093-1.772.739h-.571c.035-.475.071-.95.071-1.432zm-39.536-17.297c1.32-4.529 4.862-7.996 10.52-10.306 6.4117003-2.60750916 13.5882997-2.60750916 20 0 5.656 2.309 9.2 5.776 10.517 10.3.3388454 1.2325447.5014594 2.50686.483 3.785v8.219c-.4758143-.1732418-.9776513-.2642082-1.484-.269h-.5v-1c-.0038025-.0305827-.0091426-.0609545-.016-.091.1-1.207.408-7.494-3.9-12.343-3.285-3.693-8.364-5.566-15.1-5.566s-11.815 1.873-15.1 5.566c-4.535 5.1-3.96 11.8-3.887 12.485v.949h-.5c-.51653111.0044174-1.02840736.0981317-1.513.277v-8.227c-.01900375-1.2759991.14259732-2.5482708.48-3.779zm-3.272 42.457c-1.56892414-.8091812-2.84216004-2.0932665-3.638-3.669 1.99336604-.036387 3.84882909-1.0249015 4.991-2.659.96705033-1.3851825 1.4707802-3.040945 1.439-4.73v-10.951c.48519924.1809262.99818948.2760122 1.516.281h.756c1.1009705 6.9975076 6.0190701 12.7935637 12.744 15.019v.981h-3c-3.4763505.0048454-6.5528319 2.25121-7.616 5.561-2.786 1.046-5.207 1.111-7.192.167zm8.892 1.272c.4918328-2.8850396 2.9903399-4.996335 5.917-5h3.142c.4545933 1.7606851 2.0395884 2.9931852 3.858 3h4c1.8184116-.0068148 3.4034067-1.2393149 3.858-3h3.142c2.9281669-.0004491 5.4289722 2.1127885 5.917 5zm38.7-1.277c-1.98.946-4.391.887-7.163-.148-1.0558158-3.3192272-4.1378958-5.5738651-7.621-5.575h-3v-1.012c6.6088467-2.3613494 11.4481073-8.0796431 12.684-14.988h.82c.5052198-.0057589 1.0057466-.0977476 1.48-.272v10.942c-.0314876 1.6891651.4725953 3.3449374 1.44 4.73 1.1408659 1.6354563 2.9962743 2.6252553 4.99 2.662-.79483 1.5717519-2.0650637 2.8528334-3.63 3.661z"/><path id="Shape" d="m37 38h-14c-.5522847 0-1 .4477153-1 1 0 4.418278 3.581722 8 8 8s8-3.581722 8-8c0-.5522847-.4477153-1-1-1zm-9.531 6.415c.5405664-.8793354 1.4987971-1.4150823 2.531-1.4150823s1.9904336.5357469 2.531 1.4150823c-1.5972022.7799519-3.4647978.7799519-5.062 0zm6.7-1.137c-.9128401-1.4198729-2.4850082-2.2781672-4.173-2.2781672s-3.2601599.8582943-4.173 2.2781672c-.913181-.8803196-1.5225763-2.0283644-1.74-3.278h11.834c-.2185224 1.2501291-.82935 2.3982328-1.744 3.278z"/><path id="Shape" d="m29 37h2c.5522847 0 1-.4477153 1-1s-.4477153-1-1-1h-2c-.5522847 0-1 .4477153-1 1s.4477153 1 1 1z"/></g></g></g></svg>