<svg id="Layer" enable-background="new 0 0 64 64" height="512" viewBox="0 0 64 64" width="512" xmlns="http://www.w3.org/2000/svg"><path d="m54 22-22 22-2-2-8-8-2-2 22-22z" fill="#a6b6c4"/><path d="m30 42-6 6-1-1-6-6-1-1 6-6z" fill="#e9e9e9"/><path d="m23 47-7 7h-6v-6l7-7z" fill="#5bd5ff"/><path d="m54 56v-4h-33.172l2.172-2.172 1 1 6-6 2 2 24.828-24.828-14.828-14.829-24.828 24.829 2 2-6 6 1 1-6.172 6.171v8.829zm-12-43.171 9.172 9.171-19.172 19.171-9.172-9.171zm-20 23.999 5.172 5.172-3.172 3.171-5.172-5.171zm-10 15.172v-3.171l5-5 3.172 3.171-5 5z" fill="#532c00"/></svg>